<svg width="104" height="104" viewBox="0 0 104 104" fill="none" xmlns="http://www.w3.org/2000/svg">
<path d="M94.1191 54.303L100.481 57.2703L100.392 58.0844L99.2769 58.0486L92.7916 54.9586L92.8905 54.0636L94.1191 54.303ZM100.66 55.653L93.9062 54.847L92.8536 54.3979L92.9607 53.4275L100.826 54.1543L100.66 55.653ZM93.7869 57.4586L100.159 60.1869L99.9896 61.7233L92.4248 58.2795L92.5332 57.2983L93.7869 57.4586ZM100.339 58.5588L93.5423 57.9936L92.4987 57.611L92.5951 56.7376L99.5171 57.2566L100.429 57.7447L100.339 58.5588Z" fill="#EADDFF"/>
<path d="M99.3521 65.4157L91.7241 61.7687L92.1269 60.3382L99.7535 63.9904L99.3521 65.4157ZM94.6505 62.9422L94.7363 62.5776C95.0094 62.6883 95.2943 62.8305 95.591 63.0042C95.8902 63.1824 96.1582 63.3912 96.395 63.6307C96.6343 63.8746 96.808 64.1452 96.9159 64.4423C97.0228 64.7429 97.0216 65.0675 96.9121 65.4161C96.8219 65.7099 96.6839 65.9265 96.4981 66.0658C96.3114 66.2086 96.0967 66.2908 95.8539 66.3126C95.6136 66.3389 95.3639 66.3249 95.105 66.2708C94.8495 66.2176 94.6038 66.1428 94.368 66.0463L90.9698 64.447L91.3712 63.0217L94.7865 64.6202C94.9149 64.6714 95.0526 64.7158 95.1998 64.7535C95.3504 64.7922 95.4878 64.7914 95.6118 64.7512C95.7348 64.7145 95.8218 64.6056 95.8728 64.4246C95.9381 64.2327 95.9384 64.0581 95.8738 63.9009C95.8081 63.7472 95.706 63.6095 95.5675 63.4878C95.4289 63.3661 95.2768 63.2594 95.1111 63.1677C94.9478 63.0804 94.7943 63.0052 94.6505 62.9422Z" fill="#EADDFF"/>
<path d="M90.8905 68.4891L93.2205 69.9532C93.3161 70.0056 93.4152 70.0498 93.5178 70.0857C93.6223 70.1263 93.7202 70.1365 93.8113 70.1163C93.9024 70.0962 93.9758 70.0253 94.0316 69.9036C94.0916 69.772 94.1087 69.6535 94.0828 69.5481C94.0569 69.4428 94.0049 69.3479 93.9269 69.2636C93.8522 69.1807 93.7642 69.1059 93.6629 69.0391L94.2331 67.6726C94.5022 67.8068 94.7176 67.9792 94.8795 68.1896C95.0414 68.4001 95.1561 68.6336 95.2237 68.8903C95.2912 69.1471 95.3115 69.4131 95.2846 69.6886C95.2576 69.964 95.188 70.2291 95.0755 70.4838C94.9159 70.8403 94.708 71.1114 94.4521 71.2971C94.1961 71.4829 93.9119 71.578 93.5995 71.5825C93.2871 71.587 92.959 71.4944 92.6153 71.3048L90.3688 69.894C90.1853 69.7805 89.9913 69.6684 89.7869 69.5578C89.5858 69.4485 89.3746 69.3861 89.1533 69.3705L89.0678 69.3222L89.6302 67.9877C89.8587 68.0143 90.0763 68.0755 90.283 68.1714C90.4931 68.2688 90.6956 68.3747 90.8905 68.4891ZM92.7233 69.8887L91.9444 69.392L92.1386 68.95C92.1905 68.8188 92.2166 68.6884 92.2168 68.5588C92.2189 68.4339 92.1967 68.3105 92.1504 68.1886C92.106 68.0714 92.0419 67.9636 91.9581 67.865C91.8762 67.7712 91.7733 67.69 91.6492 67.6214C91.565 67.5698 91.4776 67.5306 91.3868 67.5038C91.2947 67.4802 91.208 67.4807 91.1269 67.5051C91.0443 67.5328 90.9787 67.5992 90.9301 67.7042C90.8805 67.8207 90.8549 67.9453 90.8533 68.0783C90.855 68.2126 90.8845 68.3372 90.9417 68.452C90.9989 68.5668 91.0856 68.6587 91.2016 68.7277L90.5385 68.7342C90.4096 68.6125 90.2937 68.4786 90.1908 68.3326C90.0898 68.1913 90.0109 68.0398 89.954 67.878C89.8972 67.7163 89.8693 67.5511 89.8703 67.3825C89.868 67.2126 89.9075 67.0368 89.9888 66.8553C90.1154 66.5673 90.2965 66.3496 90.5321 66.2024C90.7697 66.0599 91.0292 65.9857 91.3108 65.9799C91.5942 65.9788 91.8728 66.0444 92.1466 66.1767C92.4622 66.3308 92.7072 66.5216 92.8815 66.7491C93.0543 66.9799 93.1686 67.2329 93.2243 67.5082C93.2833 67.7849 93.2904 68.0728 93.2455 68.372C93.2025 68.676 93.1179 68.976 92.9918 69.2721L92.7233 69.8887Z" fill="#EADDFF"/>
<path d="M92.0221 76.2492L91.1216 75.5135L92.5352 72.967L93.4358 73.7027L92.0221 76.2492ZM94.257 75.207L93.5384 76.5016L89.1547 72.9887C89.0777 72.9335 88.9998 72.884 88.9207 72.8402C88.8448 72.798 88.772 72.7803 88.7021 72.787C88.6304 72.7969 88.5641 72.8531 88.503 72.9557C88.4749 73.0063 88.45 73.0586 88.4282 73.1127C88.4047 73.1699 88.3835 73.2305 88.3646 73.2945L87.3676 72.5983C87.3928 72.4635 87.4276 72.3339 87.4718 72.2095C87.5142 72.0883 87.5704 71.9686 87.6402 71.8502C87.8066 71.5579 88.0066 71.3691 88.2401 71.2837C88.4736 71.1982 88.7217 71.1871 88.9845 71.2502C89.2454 71.3165 89.4992 71.4367 89.7458 71.6108L94.257 75.207Z" fill="#EADDFF"/>
<path d="M92.388 80.1742L91.7655 79.6103C91.5696 79.4342 91.3991 79.2359 91.254 79.0154C91.1089 78.7949 90.9883 78.5601 90.8922 78.3111C90.794 78.0651 90.7224 77.8149 90.6774 77.5605L91.4465 77.2087C91.5788 77.4685 91.7191 77.7161 91.8673 77.9517C92.0165 78.1923 92.1957 78.4136 92.4048 78.6156L93.0275 79.1991L92.388 80.1742Z" fill="#EADDFF"/>
<path d="M85.1217 78.6399C85.2212 78.7415 85.3383 78.7856 85.4732 78.7723C85.6059 78.7619 85.7406 78.7254 85.8774 78.663C86.012 78.6034 86.1305 78.5495 86.233 78.5014C86.4233 78.4121 86.6148 78.3329 86.8075 78.2639C86.9979 78.1977 87.1874 78.1561 87.3759 78.1391C87.5622 78.1249 87.7461 78.1457 87.9278 78.2015C88.1122 78.2596 88.2922 78.3672 88.4677 78.5242C88.683 78.7125 88.8405 78.9244 88.9403 79.1598C89.0429 79.3974 89.0937 79.6425 89.0925 79.8949C89.0941 80.1496 89.0489 80.3995 88.9567 80.6446C88.8652 80.8948 88.734 81.1252 88.5631 81.3359C88.3267 81.6237 88.0629 81.8324 87.7718 81.9619C87.4784 82.0943 87.1757 82.1363 86.8637 82.0881C86.5494 82.0427 86.2458 81.9021 85.9528 81.6662L86.8703 80.504C86.9589 80.5785 87.0514 80.6423 87.1477 80.6953C87.2469 80.7506 87.3461 80.7737 87.4455 80.7646C87.5448 80.7554 87.6376 80.6905 87.7237 80.5696C87.7954 80.4788 87.8391 80.3797 87.8548 80.2723C87.8682 80.1677 87.8571 80.0622 87.8214 79.9557C87.7885 79.8514 87.7363 79.7572 87.6646 79.6729C87.5934 79.5938 87.511 79.5494 87.4172 79.5399C87.3262 79.5325 87.2311 79.545 87.132 79.5773C87.0328 79.6096 86.9356 79.648 86.8405 79.6927C86.7459 79.7424 86.666 79.7853 86.6007 79.8213C86.3311 79.9586 86.067 80.0656 85.8083 80.1424C85.5495 80.2192 85.2941 80.2364 85.042 80.194C84.7904 80.1567 84.542 80.025 84.2965 79.799C84.0677 79.6045 83.9053 79.3842 83.8094 79.1381C83.7163 78.8941 83.6763 78.6414 83.6893 78.3799C83.7051 78.1205 83.7664 77.8649 83.8732 77.6129C83.9749 77.3615 84.1148 77.1288 84.293 76.9147C84.5346 76.6263 84.8099 76.4175 85.1191 76.2884C85.4261 76.1622 85.7406 76.1226 86.0628 76.1696C86.3879 76.2189 86.6983 76.3626 86.994 76.6007L86.116 77.7042C86.0047 77.6118 85.8919 77.5388 85.7774 77.4853C85.663 77.4319 85.5508 77.4193 85.4409 77.4477C85.3287 77.4789 85.22 77.5612 85.1147 77.6946C85.0357 77.7889 84.9821 77.8917 84.9541 78.0032C84.926 78.1146 84.9247 78.2242 84.9503 78.3319C84.9758 78.4395 85.0329 78.5422 85.1217 78.6399Z" fill="#EADDFF"/>
<path d="M80.9529 91.4238L76.8975 84.5099L78.0483 83.5356L82.504 86.6497L79.8034 82.0497L80.9874 81.0473L85.0469 87.9577L83.892 88.9355L79.4245 85.8243L82.1285 90.4284L80.9529 91.4238Z" fill="#EADDFF"/>
<path d="M73.8497 86.4593C74.1851 86.2591 74.5092 86.1469 74.822 86.1227C75.1348 86.0984 75.4277 86.1482 75.7008 86.2722C75.9757 86.3993 76.2243 86.5832 76.4465 86.824C76.6656 87.0666 76.8569 87.3501 77.0202 87.6743L77.2292 88.1128C77.3868 88.4619 77.5035 88.8173 77.5794 89.1789C77.6572 89.5436 77.6782 89.8989 77.6422 90.2449C77.6051 90.596 77.494 90.9206 77.309 91.2188C77.1241 91.517 76.8485 91.7757 76.4824 91.9949C76.1359 92.1978 75.8118 92.2929 75.5102 92.2804C75.2074 92.2729 74.9297 92.1859 74.6771 92.0194C74.4214 91.8548 74.1924 91.6374 73.9902 91.3672C73.7869 91.1019 73.6138 90.8135 73.4711 90.502L73.1919 89.8581L76.4386 87.8381L76.8419 88.8456L74.8726 90.0645L74.9298 90.2078C74.9885 90.3501 75.0639 90.4884 75.156 90.6227C75.2481 90.7571 75.3585 90.8524 75.4872 90.9086C75.6158 90.9648 75.7659 90.946 75.9374 90.852C76.1243 90.7485 76.2459 90.6154 76.3022 90.4526C76.3573 90.2948 76.3697 90.1231 76.3395 89.9376C76.3092 89.752 76.2572 89.5692 76.1836 89.3893C76.107 89.2113 76.0333 89.0485 75.9627 88.9008L75.7555 88.4548C75.6849 88.3071 75.6057 88.1626 75.5178 88.0214C75.4288 87.8851 75.3286 87.7686 75.2173 87.6718C75.1059 87.5749 74.9803 87.5168 74.8405 87.4974C74.6994 87.4829 74.5405 87.5285 74.3636 87.6344C74.1448 87.7619 73.9707 87.9235 73.8411 88.1191C73.7104 88.3197 73.6072 88.5372 73.5316 88.7716L72.6134 88.2505C72.6323 88.0003 72.701 87.7616 72.8195 87.5346C72.935 87.3095 73.0849 87.1055 73.2692 86.9226C73.4486 86.7387 73.6421 86.5842 73.8497 86.4593Z" fill="#EADDFF"/>
<path d="M70.6899 90.2579L70.8224 94.8357L69.9429 95.2206L69.7126 93.3143L69.6174 88.9571L70.3528 88.6352L70.6899 90.2579ZM71.9802 94.329L70.2784 90.2781L69.9304 88.8201L70.7453 88.4634L73.2621 93.768L71.9802 94.329ZM68.2602 91.416L68.6759 95.7751L67.3442 96.3579L67.0087 90.0987L67.8584 89.7268L68.2602 91.416ZM69.8435 95.2641L67.8645 91.3642L67.446 89.9073L68.1367 89.6051L70.0573 93.3174L70.6634 94.9053L69.8435 95.2641Z" fill="#EADDFF"/>
<path d="M58.4318 91.9441C58.7411 92.8632 59.5924 93.9465 61.0123 94.7069C61.7104 95.0832 62.3944 95.2932 63.0404 95.3291L63.111 95.7903C61.9156 96.2767 60.8245 97.2977 60.2181 98.548C59.9102 99.1795 59.7434 99.7781 59.7226 100.377L59.2615 100.447C58.905 99.3671 57.8603 98.2684 56.5704 97.623C55.9372 97.3042 55.3023 97.1204 54.6782 97.0811L54.6076 96.6199C55.7878 96.1808 57.0378 94.877 57.5708 93.6604C57.8364 93.0466 57.9661 92.4986 57.9706 92.0147L58.4318 91.9441Z" fill="#B489FF"/>
<path d="M49.0262 94.1325L45.9613 100.448L45.1488 100.346L45.2017 99.232L48.3912 92.7951L49.2845 92.9077L49.0262 94.1325ZM47.5757 100.652L48.4855 93.9113L48.9508 92.8657L49.9195 92.9878L49.0717 100.841L47.5757 100.652ZM45.8761 93.7519L43.0501 100.082L41.5164 99.8882L45.0763 92.3773L46.0557 92.5007L45.8761 93.7519ZM44.6752 100.286L45.3449 93.499L45.7436 92.4614L46.6153 92.5713L45.9899 99.4845L45.4878 100.389L44.6752 100.286Z" fill="#EADDFF"/>
<path d="M37.9654 99.2252L41.699 91.6392L43.1249 92.0583L39.3861 99.6428L37.9654 99.2252ZM40.4923 94.5521L40.856 94.642C40.7421 94.9138 40.5967 95.1971 40.4196 95.4918C40.2381 95.7889 40.0262 96.0545 39.784 96.2886C39.5374 96.5252 39.2649 96.6957 38.9665 96.8002C38.6648 96.9037 38.3402 96.8988 37.9929 96.7854C37.7 96.6918 37.485 96.5513 37.3479 96.364C37.2073 96.1757 37.1274 95.96 37.1084 95.717C37.0849 95.4764 37.1017 95.227 37.1588 94.9686C37.2149 94.7137 37.2925 94.4689 37.3916 94.2343L39.0295 90.8545L40.4501 91.2721L38.8128 94.669C38.7602 94.7967 38.7142 94.934 38.6749 95.0807C38.6345 95.2309 38.6337 95.3682 38.6725 95.4927C38.7078 95.6161 38.8157 95.7044 38.9961 95.7574C39.1873 95.8249 39.3618 95.8272 39.5198 95.7643C39.6742 95.7004 39.8131 95.5999 39.9363 95.4628C40.0595 95.3256 40.168 95.1747 40.2616 95.01C40.3508 94.8478 40.4277 94.6951 40.4923 94.5521Z" fill="#EADDFF"/>
<path d="M34.954 90.6991L33.4554 93.007C33.4014 93.1017 33.3558 93.2001 33.3184 93.3022C33.2763 93.4061 33.2646 93.5038 33.2833 93.5952C33.3021 93.6866 33.3719 93.7611 33.4928 93.8187C33.6235 93.8806 33.7417 93.8995 33.8474 93.8752C33.9532 93.8509 34.0488 93.8003 34.1343 93.7235C34.2183 93.6501 34.2944 93.5632 34.3627 93.4629L35.7205 94.0535C35.5823 94.3205 35.4067 94.5334 35.1939 94.6921C34.9811 94.8509 34.7458 94.9621 34.4881 95.0258C34.2304 95.0894 33.9641 95.1058 33.689 95.0747C33.414 95.0437 33.15 94.9701 32.897 94.8538C32.543 94.6888 32.275 94.477 32.0931 94.2183C31.9112 93.9595 31.8203 93.674 31.8205 93.3615C31.8207 93.0491 31.9181 92.7225 32.1129 92.3816L33.5571 90.1564C33.6734 89.9746 33.7883 89.7823 33.902 89.5796C34.0143 89.3802 34.0798 89.1699 34.0988 88.9489L34.1483 88.8641L35.4742 89.4464C35.4443 89.6745 35.3798 89.8911 35.2808 90.0964C35.1803 90.305 35.0714 90.5059 34.954 90.6991ZM33.5272 92.5107L34.0356 91.7394L34.4746 91.9401C34.605 91.994 34.735 92.022 34.8646 92.0242C34.9894 92.0281 35.1131 92.0078 35.2357 91.9633C35.3535 91.9207 35.4623 91.8582 35.5621 91.7759C35.6572 91.6954 35.7399 91.5937 35.8103 91.4706C35.8631 91.3873 35.9037 91.3004 35.9319 91.2101C35.9568 91.1183 35.9576 91.0316 35.9345 90.9501C35.908 90.8672 35.8426 90.8006 35.7383 90.7504C35.6226 90.699 35.4983 90.6716 35.3654 90.668C35.231 90.6677 35.106 90.6953 34.9904 90.7508C34.8748 90.8063 34.7816 90.8916 34.7108 91.0065L34.7143 90.3435C34.8379 90.2164 34.9735 90.1025 35.121 90.0018C35.2638 89.9029 35.4165 89.8263 35.5791 89.7719C35.7417 89.7174 35.9072 89.692 36.0758 89.6955C36.2457 89.6958 36.4209 89.7379 36.6012 89.8219C36.8873 89.9528 37.1022 90.1371 37.2459 90.3749C37.3848 90.6146 37.4551 90.8752 37.4568 91.1568C37.4536 91.4402 37.3839 91.7178 37.2475 91.9896C37.0887 92.3029 36.8942 92.545 36.6642 92.7158C36.4308 92.8852 36.176 92.9957 35.9 93.0473C35.6225 93.1022 35.3344 93.1049 35.0359 93.0555C34.7326 93.008 34.4339 92.919 34.1397 92.7884L33.5272 92.5107Z" fill="#EADDFF"/>
<path d="M27.1689 91.7097L27.9178 90.8201L30.4432 92.2712L29.6943 93.1608L27.1689 91.7097ZM28.178 93.9597L26.8942 93.222L30.4715 88.8907C30.5278 88.8146 30.5784 88.7373 30.6234 88.659C30.6667 88.5837 30.6855 88.5111 30.6798 88.4411C30.671 88.3693 30.6158 88.3022 30.5141 88.2396C30.4639 88.2108 30.412 88.1851 30.3582 88.1625C30.3013 88.1382 30.241 88.116 30.1774 88.0961L30.8882 87.1096C31.0227 87.1368 31.1517 87.1735 31.2754 87.2195C31.396 87.2637 31.5149 87.3217 31.6322 87.3933C31.922 87.5639 32.1079 87.7667 32.1898 88.0014C32.2718 88.2362 32.2793 88.4844 32.2123 88.7462C32.1421 89.0062 32.0182 89.2581 31.8404 89.5022L28.178 93.9597Z" fill="#EADDFF"/>
<path d="M23.7281 92.3566L24.3222 91.7097L25.9044 90.2155L26.7123 90.7539L25.261 92.3352L24.6624 92.9792L23.7281 92.3566Z" fill="#EADDFF"/>
<path d="M25.4296 85.2192C25.328 85.3187 25.2839 85.4359 25.2972 85.5708C25.3077 85.7034 25.3441 85.8381 25.4066 85.975C25.4662 86.1095 25.52 86.2281 25.5681 86.3305C25.6574 86.5208 25.7366 86.7123 25.8056 86.905C25.8718 87.0955 25.9134 87.2849 25.9305 87.4734C25.9447 87.6597 25.9238 87.8437 25.868 88.0253C25.8099 88.2098 25.7023 88.3898 25.5454 88.5653C25.357 88.7805 25.1451 88.9381 24.9097 89.0378C24.6721 89.1405 24.427 89.1912 24.1746 89.19C23.9199 89.1917 23.67 89.1464 23.4249 89.0543C23.1747 88.9627 22.9443 88.8315 22.7337 88.6606C22.4458 88.4242 22.2371 88.1604 22.1076 87.8693C21.9753 87.5759 21.9332 87.2732 21.9814 86.9612C22.0268 86.6469 22.1674 86.3433 22.4033 86.0504L23.5655 86.9678C23.491 87.0564 23.4272 87.1489 23.3742 87.2452C23.3189 87.3444 23.2958 87.4437 23.305 87.543C23.3141 87.6423 23.3791 87.7351 23.4999 87.8213C23.5907 87.893 23.6898 87.9367 23.7972 87.9523C23.9018 87.9658 24.0073 87.9546 24.1138 87.9189C24.2181 87.8861 24.3123 87.8338 24.3966 87.7621C24.4757 87.691 24.5201 87.6085 24.5297 87.5147C24.537 87.4238 24.5245 87.3287 24.4922 87.2295C24.46 87.1303 24.4215 87.0332 24.3768 86.938C24.3271 86.8435 24.2842 86.7635 24.2482 86.6983C24.1109 86.4287 24.0039 86.1645 23.9271 85.9058C23.8503 85.6471 23.8331 85.3917 23.8755 85.1395C23.9129 84.888 24.0445 84.6395 24.2705 84.3941C24.465 84.1652 24.6853 84.0028 24.9315 83.9069C25.1754 83.8139 25.4281 83.7738 25.6897 83.7868C25.949 83.8026 26.2046 83.8639 26.4566 83.9707C26.708 84.0724 26.9407 84.2124 27.1548 84.3906C27.4433 84.6321 27.652 84.9074 27.7811 85.2166C27.9073 85.5236 27.9469 85.8382 27.8999 86.1604C27.8506 86.4854 27.7069 86.7958 27.4688 87.0916L26.3653 86.2135C26.4578 86.1023 26.5307 85.9894 26.5842 85.875C26.6377 85.7606 26.6502 85.6484 26.6218 85.5384C26.5906 85.4263 26.5083 85.3175 26.3749 85.2122C26.2806 85.1332 26.1778 85.0797 26.0664 85.0516C25.9549 85.0235 25.8454 85.0222 25.7377 85.0478C25.63 85.0733 25.5273 85.1305 25.4296 85.2192Z" fill="#EADDFF"/>
<path d="M12.6528 81.0785L19.5666 77.0231L20.5409 78.1739L17.4269 82.6296L22.0269 79.9291L23.0292 81.113L16.1188 85.1725L15.1411 84.0176L18.2522 79.5501L13.6481 82.2541L12.6528 81.0785Z" fill="#EADDFF"/>
<path d="M17.6412 74.0341C17.8426 74.3688 17.956 74.6925 17.9814 75.0052C18.0068 75.3179 17.958 75.611 17.835 75.8845C17.709 76.1599 17.526 76.4092 17.286 76.6322C17.0441 76.8523 16.7614 77.0446 16.4378 77.2091L16 77.4197C15.6515 77.5785 15.2966 77.6966 14.9353 77.7738C14.5709 77.853 14.2156 77.8752 13.8695 77.8405C13.5183 77.8047 13.1933 77.6948 12.8944 77.5109C12.5955 77.327 12.3358 77.0525 12.1152 76.6872C11.9111 76.3414 11.8148 76.0177 11.8262 75.716C11.8326 75.4132 11.9186 75.1352 12.0841 74.8819C12.2478 74.6256 12.4643 74.3959 12.7338 74.1927C12.9984 73.9884 13.2861 73.8143 13.5971 73.6704L14.24 73.3888L16.2718 76.6281L15.2658 77.0351L14.0398 75.0702L13.8967 75.1279C13.7546 75.1872 13.6165 75.2631 13.4825 75.3557C13.3485 75.4483 13.2537 75.559 13.1979 75.6879C13.1422 75.8168 13.1616 75.9668 13.2561 76.138C13.3603 76.3245 13.4939 76.4456 13.6569 76.5013C13.8149 76.5558 13.9866 76.5676 14.1721 76.5367C14.3575 76.5057 14.5401 76.4531 14.7197 76.3788C14.8974 76.3015 15.06 76.2273 15.2075 76.1561L15.6527 75.9473C15.8002 75.8761 15.9443 75.7964 16.0852 75.708C16.2212 75.6184 16.3373 75.5178 16.4337 75.4061C16.5301 75.2945 16.5878 75.1686 16.6068 75.0287C16.6207 74.8876 16.5745 74.7288 16.468 74.5523C16.3396 74.3341 16.1774 74.1605 15.9813 74.0316C15.7803 73.9017 15.5624 73.7993 15.3277 73.7245L15.8454 72.8044C16.0957 72.8224 16.3346 72.8902 16.5621 73.0079C16.7877 73.1225 16.9922 73.2717 17.1757 73.4554C17.3603 73.6341 17.5155 73.827 17.6412 74.0341Z" fill="#EADDFF"/>
<path d="M13.8115 70.8625L9.23376 70.995L8.84887 70.1155L10.7551 69.8851L15.1124 69.79L15.4342 70.5253L13.8115 70.8625ZM9.74042 72.1527L13.7913 70.451L15.2494 70.103L15.606 70.9179L10.3014 73.4347L9.74042 72.1527ZM12.6535 68.4327L8.29437 68.8484L7.7116 67.5167L13.9708 67.1813L14.3426 68.031L12.6535 68.4327ZM8.80538 70.0161L12.7053 68.037L14.1621 67.6185L14.4644 68.3092L10.7521 70.2299L9.16418 70.836L8.80538 70.0161Z" fill="#EADDFF"/>
<path d="M12.0929 58.6074C11.1738 58.9167 10.0904 59.768 9.33013 61.1879C8.95379 61.886 8.74383 62.57 8.70787 63.216L8.2467 63.2866C7.76031 62.0912 6.73925 61.0001 5.48896 60.3937C4.85749 60.0858 4.25884 59.9189 3.66008 59.8982L3.58949 59.4371C4.66992 59.0806 5.7686 58.0359 6.41395 56.746C6.73282 56.1128 6.91657 55.4779 6.95589 54.8538L7.41706 54.7832C7.85616 55.9634 9.16002 57.2134 10.3766 57.7464C10.9904 58.012 11.5384 58.1417 12.0223 58.1462L12.0929 58.6074Z" fill="#B489FF"/>
<path d="M9.8681 49.3089L3.54042 46.2684L3.63972 45.4554L4.75393 45.5041L11.2031 48.6688L11.0939 49.5625L9.8681 49.3089ZM3.34313 47.8835L10.0872 48.7674L11.1347 49.2287L11.0163 50.1978L3.16031 49.3802L3.34313 47.8835ZM10.2367 46.1574L3.8962 43.3557L4.08362 41.8213L11.6082 45.3523L11.4885 46.3322L10.2367 46.1574ZM3.69759 44.9816L10.4874 45.6252L11.5266 46.0199L11.4201 46.8921L4.50454 46.2932L3.59829 45.7946L3.69759 44.9816Z" fill="#EADDFF"/>
<path d="M4.76191 38.1302L12.348 41.8638L11.9289 43.2896L4.34434 39.5508L4.76191 38.1302ZM9.43505 40.6571L9.34512 41.0207C9.07329 40.9069 8.79004 40.7614 8.49535 40.5844C8.19821 40.4028 7.93259 40.1909 7.6985 39.9488C7.46196 39.7021 7.29142 39.4296 7.18689 39.1313C7.08338 38.8295 7.08833 38.5049 7.20173 38.1576C7.29534 37.8648 7.4358 37.6498 7.6231 37.5126C7.81142 37.372 8.0271 37.2922 8.27013 37.2732C8.51071 37.2497 8.76017 37.2664 9.01852 37.3235C9.27339 37.3796 9.51817 37.4572 9.75286 37.5563L13.1326 39.1943L12.7151 40.6149L9.31815 38.9776C9.1904 38.925 9.05316 38.879 8.90644 38.8396C8.75624 38.7992 8.61891 38.7984 8.49444 38.8372C8.37099 38.8725 8.28276 38.9804 8.22973 39.1608C8.16222 39.352 8.1599 39.5266 8.22278 39.6845C8.28668 39.839 8.3872 39.9778 8.52435 40.101C8.66149 40.2243 8.81241 40.3327 8.9771 40.4263C9.13934 40.5155 9.29199 40.5924 9.43505 40.6571Z" fill="#EADDFF"/>
<path d="M13.228 35.2208L10.9146 33.7307C10.8196 33.6772 10.721 33.6319 10.6188 33.5949C10.5147 33.5531 10.417 33.5418 10.3257 33.5609C10.2343 33.58 10.1601 33.6501 10.103 33.7712C10.0415 33.9021 10.0231 34.0204 10.0478 34.1261C10.0725 34.2317 10.1234 34.3271 10.2005 34.4123C10.2743 34.4961 10.3615 34.5719 10.462 34.6397L9.87646 35.9998C9.60895 35.8625 9.39543 35.6878 9.2359 35.4755C9.07636 35.2633 8.96428 35.0284 8.89964 34.771C8.835 34.5135 8.81769 34.2473 8.84769 33.9721C8.8777 33.697 8.95034 33.4327 9.06562 33.1793C9.22929 32.8246 9.44014 32.5559 9.69818 32.373C9.95622 32.1901 10.2415 32.0982 10.5539 32.0972C10.8663 32.0962 11.1933 32.1925 11.5349 32.3859L13.7655 33.8218C13.9477 33.9374 14.1404 34.0517 14.3436 34.1646C14.5434 34.2761 14.7539 34.3409 14.975 34.359L15.06 34.4082L14.4826 35.7363C14.2545 35.7072 14.0376 35.6435 13.8319 35.5453C13.6229 35.4456 13.4216 35.3374 13.228 35.2208ZM11.4111 33.8007L12.1843 34.3062L11.9852 34.746C11.9318 34.8765 11.9043 35.0066 11.9026 35.1362C11.8991 35.2611 11.9199 35.3847 11.9648 35.5071C12.0079 35.6248 12.0708 35.7334 12.1535 35.8329C12.2343 35.9276 12.3364 36.01 12.4597 36.0799C12.5432 36.1324 12.6302 36.1726 12.7207 36.2005C12.8126 36.2251 12.8992 36.2256 12.9806 36.2021C13.0635 36.1753 13.1298 36.1097 13.1797 36.0052C13.2306 35.8893 13.2576 35.7649 13.2607 35.632C13.2604 35.4976 13.2324 35.3728 13.1764 35.2573C13.1205 35.1419 13.0349 35.0491 12.9197 34.9787L13.5827 34.9797C13.7103 35.1028 13.8247 35.238 13.9259 35.3851C14.0253 35.5275 14.1025 35.6799 14.1576 35.8423C14.2126 36.0047 14.2387 36.1702 14.2357 36.3387C14.2361 36.5087 14.1947 36.684 14.1114 36.8647C13.9816 37.1512 13.798 37.3668 13.5607 37.5114C13.3216 37.6512 13.0612 37.7225 12.7796 37.7252C12.4962 37.7231 12.2183 37.6544 11.9461 37.519C11.6322 37.3614 11.3894 37.1679 11.2177 36.9384C11.0474 36.7057 10.936 36.4513 10.8834 36.1755C10.8275 35.8982 10.8236 35.6102 10.8719 35.3115C10.9183 35.008 11.0062 34.7089 11.1356 34.4143L11.4111 33.8007Z" fill="#EADDFF"/>
<path d="M12.1396 27.5098L13.0319 28.2554L11.5901 30.7861L10.6978 30.0405L12.1396 27.5098ZM9.89323 28.5272L10.6262 27.2407L14.9707 30.802C15.047 30.8579 15.1245 30.9083 15.203 30.953C15.2784 30.996 15.3511 31.0145 15.421 31.0086C15.4928 30.9995 15.5598 30.9441 15.622 30.8422C15.6506 30.7919 15.6761 30.7398 15.6985 30.686C15.7226 30.629 15.7445 30.5686 15.7642 30.5049L16.7533 31.2121C16.7266 31.3466 16.6904 31.4759 16.6449 31.5997C16.6011 31.7204 16.5436 31.8396 16.4724 31.9572C16.3028 32.2476 16.1008 32.4342 15.8663 32.517C15.6319 32.5998 15.3836 32.6082 15.1216 32.5422C14.8614 32.473 14.609 32.35 14.3643 32.1731L9.89323 28.5272Z" fill="#EADDFF"/>
<path d="M11.8232 23.5533L12.4395 24.1241C12.6334 24.3023 12.8017 24.5024 12.9444 24.7245C13.087 24.9467 13.205 25.1828 13.2984 25.4328C13.3939 25.6798 13.4627 25.9308 13.5049 26.1857L12.732 26.529C12.6026 26.2678 12.465 26.0186 12.3194 25.7814C12.1728 25.5392 11.9961 25.316 11.7892 25.1117L11.173 24.5214L11.8232 23.5533Z" fill="#EADDFF"/>
<path d="M19.0291 25.2042C18.9308 25.1016 18.8141 25.0562 18.679 25.068C18.5463 25.077 18.4112 25.112 18.2737 25.1729C18.1384 25.231 18.0193 25.2836 17.9164 25.3306C17.7251 25.4178 17.5327 25.4949 17.3393 25.5618C17.1482 25.6259 16.9582 25.6654 16.7696 25.6804C16.5831 25.6926 16.3994 25.6697 16.2184 25.6119C16.0346 25.5518 15.8558 25.4423 15.682 25.2834C15.4688 25.0927 15.3136 24.8791 15.2164 24.6426C15.1164 24.4039 15.0683 24.1583 15.0723 23.9059C15.0734 23.6512 15.1214 23.4018 15.2162 23.1577C15.3105 22.9085 15.4442 22.6796 15.6174 22.4708C15.857 22.1856 16.123 21.9798 16.4155 21.8535C16.7103 21.7243 17.0135 21.6856 17.325 21.7372C17.6387 21.786 17.9408 21.93 18.2311 22.169L17.301 23.3211C17.2132 23.2456 17.1215 23.1808 17.0257 23.1268C16.9271 23.0704 16.8281 23.0463 16.7287 23.0543C16.6293 23.0623 16.5358 23.1263 16.4483 23.2462C16.3756 23.3362 16.3309 23.4348 16.314 23.5421C16.2994 23.6465 16.3094 23.7521 16.3439 23.859C16.3757 23.9636 16.4269 24.0584 16.4977 24.1435C16.5679 24.2234 16.6499 24.2687 16.7436 24.2792C16.8345 24.2875 16.9297 24.2761 17.0292 24.2449C17.1287 24.2137 17.2263 24.1763 17.3219 24.1327C17.417 24.084 17.4974 24.042 17.5631 24.0067C17.8342 23.8724 18.0995 23.7683 18.359 23.6943C18.6186 23.6204 18.8742 23.606 19.1258 23.6511C19.3769 23.6912 19.624 23.8256 19.8669 24.0542C20.0936 24.2512 20.2536 24.4733 20.3468 24.7205C20.4372 24.9654 20.4744 25.2186 20.4586 25.48C20.4399 25.7391 20.3758 25.994 20.2663 26.2449C20.1619 26.4951 20.0194 26.7263 19.8388 26.9384C19.5942 27.2242 19.3166 27.4299 19.006 27.5556C18.6977 27.6785 18.3827 27.7146 18.061 27.6641C17.7365 27.6112 17.4277 27.4642 17.1346 27.2229L18.0246 26.129C18.1349 26.2227 18.2469 26.2969 18.3608 26.3516C18.4746 26.4063 18.5866 26.4201 18.6969 26.3929C18.8094 26.3629 18.919 26.2818 19.0258 26.1495C19.1058 26.0562 19.1605 25.9539 19.1898 25.8428C19.2191 25.7317 19.2215 25.6221 19.1972 25.5142C19.1728 25.4062 19.1168 25.3029 19.0291 25.2042Z" fill="#EADDFF"/>
<path d="M23.2592 12.4881L27.2389 19.4458L26.0775 20.4075L21.6561 17.245L24.3063 21.8742L23.1115 22.8636L19.1276 15.9093L20.2931 14.9442L24.7264 18.1039L22.0728 13.4706L23.2592 12.4881Z" fill="#EADDFF"/>
<path d="M30.3547 17.4611C30.0172 17.6575 29.6918 17.7661 29.3788 17.787C29.0657 17.8078 28.7734 17.7547 28.5017 17.6277C28.2282 17.4977 27.9817 17.311 27.7621 17.0678C27.5457 16.8227 27.3576 16.5372 27.1978 16.2112L26.9937 15.7704C26.8399 15.4196 26.7271 15.063 26.6552 14.7006C26.5814 14.3351 26.5644 13.9795 26.6041 13.6339C26.6451 13.2833 26.7598 12.9599 26.948 12.6638C27.1362 12.3676 27.4146 12.112 27.7831 11.8968C28.1318 11.6978 28.4569 11.6062 28.7584 11.622C29.0611 11.6329 29.3378 11.7229 29.5886 11.8922C29.8425 12.0595 30.069 12.2795 30.2682 12.5519C30.4687 12.8194 30.6385 13.1097 30.7778 13.4228L31.0499 14.0697L27.7811 16.0538L27.389 15.0419L29.3716 13.8448L29.316 13.7009C29.2588 13.558 29.185 13.4188 29.0943 13.2835C29.0037 13.1481 28.8944 13.0516 28.7664 12.994C28.6383 12.9364 28.488 12.9536 28.3155 13.0456C28.1275 13.147 28.0044 13.2788 27.9464 13.441C27.8895 13.5982 27.8752 13.7697 27.9034 13.9556C27.9316 14.1415 27.9816 14.3248 28.0532 14.5055C28.1279 14.6843 28.1998 14.848 28.2687 14.9965L28.471 15.4447C28.54 15.5932 28.6176 15.7385 28.7039 15.8807C28.7915 16.0179 28.8903 16.1356 29.0006 16.2336C29.1109 16.3317 29.2358 16.3912 29.3755 16.4122C29.5163 16.4282 29.6758 16.3843 29.8538 16.2804C30.074 16.1553 30.2499 15.9956 30.3816 15.8014C30.5145 15.6023 30.6201 15.386 30.6983 15.1524L31.6107 15.6835C31.5891 15.9336 31.5177 16.1714 31.3967 16.3972C31.2788 16.621 31.1266 16.8233 30.9403 17.0041C30.7589 17.1861 30.5637 17.3384 30.3547 17.4611Z" fill="#EADDFF"/>
<path d="M33.4343 13.7238L33.353 9.1448L34.2367 8.76976L34.4457 10.6785L34.4922 15.0365L33.7533 15.3501L33.4343 13.7238ZM32.1896 9.63849L33.846 13.7081L34.1777 15.17L33.3588 15.5175L30.9015 10.1852L32.1896 9.63849ZM35.8768 12.5929L35.5099 8.22945L36.848 7.66159L37.1135 13.9241L36.2597 14.2865L35.8768 12.5929ZM34.3365 8.72738L36.2719 12.6492L36.6741 14.1106L35.9801 14.4051L34.101 10.6715L33.5127 9.07699L34.3365 8.72738Z" fill="#EADDFF"/>
<path d="M45.767 12.0925C45.4683 11.1699 44.6295 10.0769 43.2184 9.30028C42.5246 8.91593 41.8432 8.69813 41.1976 8.65474L41.1323 8.1928C42.3332 7.72018 43.4359 6.71173 44.0567 5.46849C44.3718 4.84059 44.5455 4.2439 44.5731 3.64542L45.0351 3.58013C45.3791 4.66458 46.4111 5.7752 47.6935 6.43533C48.323 6.76146 48.9558 6.95249 49.5794 6.99898L49.6446 7.46092C48.4595 7.88644 47.1946 9.17584 46.6477 10.3862C46.375 10.9969 46.2391 11.5434 46.2289 12.0272L45.767 12.0925Z" fill="#B489FF"/>
<path d="M55.3431 9.96933L58.4806 3.68916L59.2919 3.80096L59.2261 4.91429L55.9626 11.314L55.0707 11.1911L55.3431 9.96933ZM56.8687 3.46706L55.8812 10.1968L55.4038 11.237L54.4367 11.1037L55.3749 3.26124L56.8687 3.46706ZM58.4886 10.3863L61.3874 4.0897L62.9188 4.3007L59.2725 11.77L58.2946 11.6353L58.4886 10.3863ZM59.7648 3.86611L59.0168 10.6453L58.6062 11.6782L57.7358 11.5583L58.4409 4.65279L58.9534 3.75432L59.7648 3.86611Z" fill="#EADDFF"/>
<path d="M66.3263 4.95005L62.5068 12.4932L61.0858 12.0579L64.9106 4.51636L66.3263 4.95005ZM63.7465 9.59416L63.3839 9.5001C63.5008 9.22959 63.6495 8.94801 63.8299 8.65535C64.0148 8.36029 64.2297 8.0971 64.4745 7.86578C64.7238 7.63205 64.9983 7.46463 65.2977 7.3635C65.6007 7.26343 65.9252 7.27206 66.2712 7.3894C66.5629 7.48633 66.7763 7.62923 66.9113 7.81808C67.0498 8.00798 67.1272 8.22455 67.1434 8.46778C67.1642 8.70861 67.1446 8.95787 67.0845 9.21555C67.0256 9.46977 66.9452 9.71366 66.8434 9.9472L65.1672 13.3081L63.7514 12.8744L65.4272 9.49636C65.4813 9.36922 65.5288 9.23251 65.5699 9.08624C65.6119 8.93652 65.6143 8.79921 65.5769 8.67431C65.543 8.55046 65.4361 8.46101 65.2564 8.40593C65.0659 8.33625 64.8914 8.33195 64.7328 8.39303C64.5776 8.45516 64.4376 8.5541 64.3128 8.68984C64.1881 8.82558 64.0779 8.97525 63.9824 9.13887C63.8914 9.30008 63.8128 9.45185 63.7465 9.59416Z" fill="#EADDFF"/>
<path d="M69.3738 13.5406L70.8982 11.2497C70.9532 11.1555 71 11.0576 71.0385 10.956C71.0818 10.8525 71.0946 10.755 71.0768 10.6634C71.0591 10.5718 70.9901 10.4965 70.8699 10.4376C70.7399 10.3742 70.6219 10.354 70.5159 10.3771C70.4099 10.4002 70.3137 10.4497 70.2274 10.5255C70.1425 10.5981 70.0654 10.6841 69.9961 10.7836L68.6449 10.1778C68.7861 9.91239 68.9641 9.7015 69.1787 9.54515C69.3933 9.38881 69.6298 9.28024 69.8882 9.21945C70.1466 9.15867 70.4131 9.14533 70.6877 9.17944C70.9624 9.21355 71.2255 9.29013 71.4772 9.40918C71.8294 9.57813 72.095 9.79297 72.274 10.0537C72.453 10.3145 72.5406 10.601 72.5369 10.9134C72.5333 11.2259 72.4322 11.5514 72.2336 11.89L70.7646 14.0989C70.6463 14.2794 70.5292 14.4704 70.4132 14.6718C70.2988 14.87 70.2308 15.0795 70.2094 15.3003L70.1589 15.3846L68.8396 14.7874C68.8721 14.5597 68.939 14.3438 69.0403 14.1396C69.1431 13.9322 69.2543 13.7325 69.3738 13.5406ZM70.8209 11.7451L70.3039 12.5107L69.8671 12.305C69.7374 12.2497 69.6077 12.2202 69.4781 12.2167C69.3533 12.2113 69.2294 12.2302 69.1063 12.2733C68.988 12.3146 68.8785 12.3759 68.7778 12.4571C68.6819 12.5365 68.598 12.6373 68.5262 12.7595C68.4725 12.8423 68.431 12.9287 68.4018 13.0187C68.3758 13.1102 68.374 13.1969 68.3963 13.2786C68.4218 13.3619 68.4865 13.4292 68.5902 13.4806C68.7053 13.5332 68.8293 13.562 68.9621 13.5671C69.0965 13.5689 69.2218 13.5427 69.338 13.4885C69.4542 13.4343 69.5484 13.3501 69.6205 13.2359L69.6096 13.8989C69.4845 14.0246 69.3477 14.137 69.199 14.236C69.0552 14.3333 68.9016 14.4082 68.7384 14.4608C68.5752 14.5134 68.4094 14.537 68.2409 14.5316C68.0709 14.5294 67.8963 14.4853 67.7169 14.3993C67.4323 14.2653 67.2195 14.0785 67.0785 13.8391C66.9422 13.5979 66.8749 13.3365 66.8764 13.0549C66.8827 12.7715 66.9555 12.4947 67.095 12.2245C67.2573 11.913 67.4544 11.6732 67.6864 11.5049C67.9217 11.3381 68.1776 11.2305 68.4542 11.182C68.7323 11.1302 69.0204 11.1307 69.3183 11.1834C69.621 11.2344 69.9188 11.3267 70.2114 11.4605L70.8209 11.7451Z" fill="#EADDFF"/>
<path d="M77.0817 12.5567L76.323 13.4379L73.8138 11.9589L74.5725 11.0777L77.0817 12.5567ZM76.0975 10.2956L77.3731 11.0475L73.7481 15.3389C73.691 15.4144 73.6395 15.4911 73.5936 15.5689C73.5495 15.6437 73.53 15.7161 73.5348 15.7861C73.5428 15.858 73.5973 15.9258 73.6983 15.9895C73.7481 16.0189 73.7998 16.0452 73.8533 16.0683C73.9099 16.0933 73.97 16.1161 74.0334 16.1367L73.3117 17.1153C73.1776 17.0866 73.0489 17.0485 72.9257 17.0011C72.8057 16.9555 72.6874 16.8963 72.5709 16.8234C72.283 16.6495 72.0994 16.4448 72.02 16.2091C71.9407 15.9735 71.936 15.7251 72.0059 15.4641C72.0789 15.205 72.2056 14.9544 72.386 14.7123L76.0975 10.2956Z" fill="#EADDFF"/>
<path d="M81.0607 12.3094L80.481 12.9173C80.3 13.1086 80.0974 13.2739 79.8732 13.4133C79.649 13.5527 79.4112 13.6672 79.1598 13.7569C78.9114 13.8487 78.6595 13.9139 78.404 13.9524L78.072 13.1745C78.3351 13.0489 78.5863 12.915 78.8256 12.7729C79.0699 12.6299 79.2957 12.4565 79.503 12.2526L80.1023 11.6451L81.0607 12.3094Z" fill="#EADDFF"/>
<path d="M79.3054 19.4927C79.4094 19.3958 79.4565 19.2798 79.4467 19.1446C79.4396 19.0118 79.4066 18.8762 79.3477 18.7378C79.2915 18.6017 79.2407 18.4819 79.1952 18.3782C79.1108 18.1857 79.0365 17.9922 78.9724 17.7979C78.9111 17.6058 78.8744 17.4153 78.8622 17.2264C78.8527 17.0399 78.8782 16.8565 78.9387 16.6763C79.0015 16.4934 79.1136 16.3162 79.275 16.1448C79.4688 15.9344 79.6846 15.7823 79.9225 15.6886C80.1627 15.592 80.4089 15.5476 80.6612 15.5552C80.9159 15.56 81.1645 15.6117 81.4072 15.71C81.655 15.8079 81.882 15.945 82.0882 16.1212C82.3699 16.3649 82.5718 16.6339 82.6939 16.9282C82.8187 17.2249 82.853 17.5285 82.7968 17.8393C82.7434 18.1523 82.5951 18.4522 82.3519 18.739L81.2134 17.7922C81.2902 17.7055 81.3563 17.6147 81.4118 17.5198C81.4696 17.422 81.4952 17.3234 81.4886 17.2239C81.482 17.1243 81.4194 17.0299 81.3008 16.9407C81.2118 16.8667 81.1139 16.8205 81.0069 16.8021C80.9027 16.786 80.7969 16.7944 80.6896 16.8274C80.5845 16.8576 80.489 16.9075 80.4029 16.977C80.322 17.0461 80.2755 17.1274 80.2636 17.2209C80.2539 17.3116 80.264 17.407 80.2937 17.507C80.3234 17.607 80.3594 17.7051 80.4016 17.8013C80.4489 17.8971 80.4898 17.9781 80.5241 18.0443C80.6545 18.3173 80.7547 18.5841 80.8249 18.8447C80.895 19.1053 80.9057 19.361 80.8569 19.612C80.8131 19.8625 80.6752 20.1076 80.443 20.3472C80.2428 20.571 80.0184 20.7277 79.7698 20.8173C79.5236 20.9041 79.27 20.9377 79.0088 20.918C78.75 20.8956 78.496 20.8278 78.2468 20.7146C77.9981 20.6065 77.769 20.4606 77.5596 20.2771C77.2774 20.0283 77.0757 19.7477 76.9546 19.4353C76.8362 19.1252 76.8046 18.8097 76.8599 18.4888C76.9174 18.1652 77.069 17.8585 77.3146 17.5689L78.3953 18.4748C78.3 18.5837 78.2242 18.6947 78.1679 18.8077C78.1115 18.9207 78.0961 19.0325 78.1217 19.1432C78.15 19.2561 78.2295 19.3669 78.3602 19.4756C78.4524 19.557 78.5538 19.6131 78.6645 19.644C78.7752 19.6749 78.8847 19.679 78.993 19.6562C79.1013 19.6334 79.2054 19.5789 79.3054 19.4927Z" fill="#EADDFF"/>
<path d="M91.9777 23.9361L84.9628 27.8142L84.0182 26.6389L87.2447 22.264L82.5774 24.8465L81.6055 23.6375L88.617 19.7552L89.5651 20.9346L86.3411 25.3215L91.0127 22.7355L91.9777 23.9361Z" fill="#EADDFF"/>
<path d="M86.9014 30.9716C86.71 30.6312 86.6061 30.3043 86.5899 29.991C86.5737 29.6776 86.631 29.3861 86.762 29.1163C86.8961 28.8448 87.0863 28.601 87.3327 28.3851C87.5809 28.1722 87.8692 27.9883 88.1975 27.8333L88.6413 27.6357C88.9943 27.4872 89.3526 27.3796 89.716 27.313C90.0825 27.2446 90.4383 27.2328 90.7833 27.2776C91.1332 27.3238 91.4549 27.4431 91.7482 27.6357C92.0416 27.8283 92.2931 28.1104 92.5029 28.482C92.6968 28.8336 92.7836 29.16 92.7633 29.4612C92.748 29.7637 92.6539 30.0391 92.481 30.2874C92.3099 30.5388 92.0867 30.762 91.8113 30.9572C91.5409 31.1537 91.2482 31.3193 90.9331 31.4539L90.2822 31.7165L88.3463 28.419L89.3639 28.0417L90.5317 30.0417L90.6764 29.9882C90.8202 29.9332 90.9604 29.8613 91.0971 29.7727C91.2337 29.6841 91.3318 29.5762 91.3913 29.449C91.4508 29.3219 91.4359 29.1713 91.3464 28.9974C91.2477 28.808 91.1177 28.683 90.9565 28.6225C90.8001 28.5634 90.6288 28.5465 90.4425 28.572C90.2562 28.5975 90.0722 28.6448 89.8905 28.7137C89.7106 28.7858 89.5459 28.8552 89.3964 28.922L88.9452 29.1177C88.7957 29.1845 88.6493 29.26 88.5058 29.3442C88.3673 29.4297 88.2483 29.5268 88.1486 29.6357C88.049 29.7445 87.9876 29.8685 87.9646 30.0078C87.9465 30.1484 87.9881 30.3085 88.0893 30.4881C88.2112 30.71 88.3683 30.8883 88.5605 31.0228C88.7576 31.1587 88.9724 31.2674 89.2048 31.349L88.6603 32.2536C88.4106 32.2282 88.1738 32.1534 87.9499 32.0291C87.7278 31.9079 87.5277 31.7528 87.3497 31.5638C87.1704 31.3798 87.021 31.1824 86.9014 30.9716Z" fill="#EADDFF"/>
<path d="M90.6052 34.1565L95.1848 34.1435L95.5466 35.0327L93.635 35.2132L89.2768 35.1947L88.9742 34.4512L90.6052 34.1565ZM94.7085 32.9729L90.6146 34.5684L89.148 34.8782L88.8127 34.0543L94.1812 31.6767L94.7085 32.9729ZM91.6994 36.6156L96.0679 36.3138L96.6157 37.6602L90.3499 37.8323L90.0004 36.9732L91.6994 36.6156ZM95.5875 35.1332L91.6373 37.0098L90.17 37.3902L89.8859 36.6918L93.6471 34.8687L95.2502 34.3042L95.5875 35.1332Z" fill="#EADDFF"/>
<path d="M92.0281 46.5339C92.9552 46.2495 94.0609 45.4275 94.8591 44.0285C95.254 43.3407 95.4822 42.6627 95.5355 42.0178L95.9984 41.9596C96.4526 43.1676 97.444 44.2857 98.6775 44.9255C99.3005 45.2502 99.8945 45.433 100.492 45.4698L100.551 45.9327C99.4611 46.26 98.3348 47.2749 97.655 48.547C97.3193 49.1714 97.1186 49.8012 97.0625 50.424L96.5996 50.4822C96.1923 49.2907 94.9225 48.0061 93.7207 47.4407C93.1142 47.1587 92.5699 47.0144 92.0863 46.9968L92.0281 46.5339Z" fill="#B489FF"/>
</svg>
