<svg width="65" height="51" viewBox="0 0 65 51" fill="none" xmlns="http://www.w3.org/2000/svg">
<path d="M58.4796 16.6368H43.8324C41.1641 16.6368 39.0009 18.7999 39.0009 21.4683C39.0009 24.1367 41.1641 26.2998 43.8324 26.2998H58.4796C61.1479 26.2998 63.3111 24.1367 63.3111 21.4683C63.3111 18.7999 61.1479 16.6368 58.4796 16.6368Z" stroke="#EADDFF" stroke-width="0.369262"/>
<path d="M44.2134 23.6013V19.3353H45.7048C46.002 19.3353 46.2471 19.3867 46.4401 19.4895C46.6331 19.5908 46.7769 19.7276 46.8713 19.8998C46.9657 20.0706 47.0129 20.2602 47.0129 20.4685C47.0129 20.6518 46.9803 20.8032 46.915 20.9226C46.8512 21.042 46.7665 21.1364 46.6609 21.2059C46.5568 21.2753 46.4436 21.3267 46.3214 21.36V21.4017C46.4519 21.41 46.5831 21.4558 46.7151 21.5392C46.847 21.6225 46.9574 21.7419 47.0463 21.8974C47.1351 22.053 47.1796 22.2432 47.1796 22.4682C47.1796 22.682 47.131 22.8744 47.0338 23.0452C46.9366 23.216 46.7831 23.3514 46.5734 23.4514C46.3637 23.5513 46.0909 23.6013 45.7548 23.6013H44.2134ZM44.73 23.1431H45.7548C46.0923 23.1431 46.3318 23.0778 46.4734 22.9473C46.6165 22.8153 46.688 22.6556 46.688 22.4682C46.688 22.3238 46.6512 22.1904 46.5776 22.0682C46.504 21.9446 46.3991 21.846 46.2631 21.7724C46.127 21.6975 45.9659 21.66 45.7798 21.66H44.73V23.1431ZM44.73 21.21H45.6881C45.8437 21.21 45.9839 21.1795 46.1089 21.1184C46.2353 21.0573 46.3353 20.9712 46.4089 20.8601C46.4839 20.749 46.5214 20.6185 46.5214 20.4685C46.5214 20.281 46.4561 20.122 46.3256 19.9915C46.195 19.8596 45.9881 19.7936 45.7048 19.7936H44.73V21.21Z" fill="#EADDFF"/>
<path d="M48.0284 23.6013V19.3353H50.603V19.7936H48.545V21.235H50.4697V21.6933H48.545V23.1431H50.6363V23.6013H48.0284Z" fill="#EADDFF"/>
<path d="M51.3008 19.7936V19.3353H54.5003V19.7936H53.1589V23.6013H52.6423V19.7936H51.3008Z" fill="#EADDFF"/>
<path d="M54.9742 23.6013H54.4326L55.999 19.3353H56.5323L58.0987 23.6013H57.5571L56.2823 20.0102H56.249L54.9742 23.6013ZM55.1742 21.9349H57.3572V22.3932H55.1742V21.9349Z" fill="#EADDFF"/>
<g filter="url(#filter0_d_87_1024)">
<path d="M19.0095 34.831C19.0866 34.8054 19.2151 34.7926 19.3951 34.7926C19.7807 34.7926 20.0763 34.9206 20.2819 35.1765C20.4876 35.4323 20.5904 35.7778 20.5904 36.2127C20.5904 37.006 20.4362 37.6329 20.1277 38.0934C19.8192 38.5284 19.3565 38.8483 18.7396 39.053C17.5571 39.4368 16.2975 39.6287 14.9608 39.6287C13.8298 39.6287 12.763 39.4751 11.7604 39.1681C11.015 40.3707 10.1924 41.6117 9.29267 42.8911C8.26443 44.3496 7.37758 45.3475 6.63211 45.8848C5.88664 46.4221 5.03835 46.6908 4.08723 46.6908C3.03329 46.6908 2.19785 46.2814 1.58091 45.4626C0.989676 44.6438 0.616941 43.3516 0.462705 41.5861C0.154235 38.0039 0 34.8694 0 32.1827V30.8394C0.0257059 29.995 0.257059 29.4065 0.694058 29.0738C1.13106 28.7412 1.78656 28.5749 2.66056 28.5749C3.32891 28.5749 3.81732 28.7284 4.12579 29.0355C4.45997 29.3169 4.62705 29.8031 4.62705 30.494C4.62705 33.4365 4.80699 37.2618 5.16688 41.9699C6.70923 39.6926 7.86599 37.8759 8.63717 36.5198C8.25158 35.7778 8.05879 34.895 8.05879 33.8715C8.05879 33.0015 8.25158 32.1571 8.63717 31.3383C9.02276 30.5195 9.54973 29.8543 10.2181 29.3425C10.8864 28.8308 11.6448 28.5749 12.493 28.5749C13.2385 28.5749 13.8426 28.8436 14.3053 29.3809C14.768 29.8926 14.9994 30.6475 14.9994 31.6454C14.9994 32.7968 14.6909 34.1146 14.074 35.5987C15.0508 35.5475 16.3489 35.3556 17.9684 35.0229L19.0095 34.831Z" fill="white"/>
<path d="M21.5242 26.0801C20.4446 26.0801 19.6349 25.837 19.095 25.3509C18.5552 24.8391 18.2853 24.1355 18.2853 23.2399C18.2853 22.3443 18.6323 21.6023 19.3264 21.0138C20.0461 20.3997 20.933 20.0927 21.9869 20.0927C22.9381 20.0927 23.7092 20.3229 24.3005 20.7835C24.8917 21.2441 25.1873 21.8966 25.1873 22.741C25.1873 23.7645 24.8531 24.5832 24.1848 25.1973C23.5164 25.7859 22.6296 26.0801 21.5242 26.0801ZM21.2158 46.6908C19.5449 46.6908 18.3239 46.1023 17.5527 44.9253C16.8072 43.7483 16.4345 42.1874 16.4345 40.2428C16.4345 39.0913 16.5759 37.6201 16.8586 35.8289C17.1671 34.0122 17.5527 32.3235 18.0154 30.7626C18.2467 29.9438 18.5552 29.3809 18.9408 29.0738C19.3264 28.7668 19.9433 28.6133 20.7916 28.6133C22.1026 28.6133 22.7581 29.0483 22.7581 29.9182C22.7581 30.5579 22.5139 32.042 22.0255 34.3705C21.4086 37.1851 21.1001 39.0913 21.1001 40.0892C21.1001 40.8569 21.2029 41.4454 21.4086 41.8548C21.6142 42.2642 21.9612 42.4689 22.4496 42.4689C22.9124 42.4689 23.4907 42.149 24.1848 41.5094C24.8788 40.8697 25.8043 39.859 26.961 38.4772C27.2695 38.119 27.6165 37.9399 28.0021 37.9399C28.3363 37.9399 28.5933 38.0934 28.7733 38.4005C28.9789 38.7075 29.0818 39.1297 29.0818 39.6671C29.0818 40.6906 28.8376 41.4838 28.3491 42.0467C25.8043 45.1428 23.4265 46.6908 21.2158 46.6908Z" fill="white"/>
<path fill-rule="evenodd" clip-rule="evenodd" d="M30.8014 20.94L21.7292 14.9811C20.9496 14.4684 20.3518 13.7245 20.0206 12.8547C19.6893 11.985 19.6414 11.0336 19.8836 10.1353L21.9489 2.46295C22.0859 1.9544 22.3422 1.48551 22.6969 1.09491C23.0516 0.704311 23.4944 0.403182 23.9889 0.216329C24.4835 0.0294763 25.0155 -0.0377526 25.5412 0.0201807C26.067 0.0781139 26.5713 0.259552 27.0128 0.549547L34.7958 5.66463C35.9652 6.43336 36.862 7.54882 37.3592 8.85304C37.8563 10.1573 37.9287 11.5841 37.5659 12.9315L33.3512 28.5886C35.4657 27.8742 37.7594 27.8835 39.8679 28.6152C41.9764 29.3469 43.7789 30.7589 44.9889 32.6269C46.0851 34.3193 46.6382 36.298 46.5834 38.3012C46.7854 38.574 47.1064 38.7416 47.4621 38.7028C48.4612 38.5937 49.5927 38.3851 50.8566 38.077C51.0123 38.0279 51.1934 38.0051 51.3998 38.0086C51.7353 38.0142 51.9906 38.1862 52.1656 38.5247C52.3406 38.8632 52.4238 39.2906 52.4152 39.8067C52.4044 40.4518 52.3057 40.9535 52.119 41.3118C51.9328 41.6443 51.645 41.8718 51.2558 41.9943C50.1662 42.3554 47.2972 42.5938 45.5752 42.3966C45.1397 43.2864 44.5705 44.1128 43.8815 44.8451C42.3551 46.4674 40.3279 47.5355 38.1218 47.8797C35.9158 48.2239 33.6575 47.8245 31.7056 46.7449C29.7537 45.6653 28.2202 43.9674 27.3487 41.921C26.4772 39.8746 26.3177 37.597 26.8954 35.45L30.8014 20.94ZM25.8497 5.09293L32.3441 9.36201L32.3426 9.35929C32.733 9.61573 33.0323 9.98806 33.198 10.4234C33.3638 10.8588 33.3875 11.3351 33.2659 11.7846L32.0146 16.433L24.1831 11.2843L25.8497 5.09293ZM31.7514 40.8C31.0135 39.5278 30.8135 38.0159 31.1955 36.5969C31.5774 35.1779 32.5101 33.9681 33.7882 33.2336C35.0663 32.499 36.5852 32.3 38.0107 32.6802C39.4363 33.0604 40.6517 33.9888 41.3896 35.261C42.1275 36.5332 42.3275 38.0451 41.9455 39.4641C41.5636 40.8831 40.6309 42.0929 39.3528 42.8274C38.0747 43.5619 36.5558 43.761 35.1303 43.3808C33.7047 43.0005 32.4893 42.0722 31.7514 40.8Z" fill="#FAC800"/>
<path d="M62.047 39.0913C62.3812 39.0913 62.6382 39.2449 62.8181 39.5519C63.0238 39.859 63.1266 40.2812 63.1266 40.8185C63.1266 41.7396 62.9081 42.5329 62.4711 43.1981C61.7514 44.2984 60.8002 45.1556 59.6178 45.7697C58.461 46.3838 57.0729 46.6908 55.4534 46.6908C52.9857 46.6908 51.0706 45.9616 49.7082 44.5031C48.3458 43.019 47.6646 41.0232 47.6646 38.5156C47.6646 36.7501 48.0373 35.1125 48.7828 33.6028C49.5282 32.0676 50.5565 30.8522 51.8675 29.9566C53.2042 29.0611 54.708 28.6133 56.3788 28.6133C57.8698 28.6133 59.0651 29.0611 59.9648 29.9566C60.8645 30.8266 61.3144 32.0164 61.3144 33.5261C61.3144 35.2916 60.6717 36.8141 59.3864 38.0934C58.1268 39.3472 55.9675 40.3451 52.9085 41.0872C53.5255 42.2642 54.5666 42.8527 56.0318 42.8527C57.0857 42.8527 57.9469 42.6096 58.6152 42.1235C59.3093 41.6373 60.1062 40.8185 61.0059 39.6671C61.3144 39.2832 61.6614 39.0913 62.047 39.0913ZM55.7233 32.3746C54.7722 32.3746 53.9625 32.9248 53.2941 34.025C52.6515 35.1253 52.3302 36.4558 52.3302 38.0167V38.0934C53.8468 37.7352 55.0421 37.1979 55.9161 36.4814C56.7901 35.765 57.2271 34.9334 57.2271 33.9866C57.2271 33.5005 57.0857 33.1167 56.803 32.8352C56.5459 32.5282 56.186 32.3746 55.7233 32.3746Z" fill="white"/>
</g>
<defs>
<filter id="filter0_d_87_1024" x="0" y="0" width="64.1267" height="51" filterUnits="userSpaceOnUse" color-interpolation-filters="sRGB">
<feFlood flood-opacity="0" result="BackgroundImageFix"/>
<feColorMatrix in="SourceAlpha" type="matrix" values="0 0 0 0 0 0 0 0 0 0 0 0 0 0 0 0 0 0 127 0" result="hardAlpha"/>
<feOffset dx="1" dy="3"/>
<feComposite in2="hardAlpha" operator="out"/>
<feColorMatrix type="matrix" values="0 0 0 0 0.0766667 0 0 0 0 0.165987 0 0 0 0 0.383333 0 0 0 1 0"/>
<feBlend mode="normal" in2="BackgroundImageFix" result="effect1_dropShadow_87_1024"/>
<feBlend mode="normal" in="SourceGraphic" in2="effect1_dropShadow_87_1024" result="shape"/>
</filter>
</defs>
</svg>