<svg width="56" height="45" viewBox="0 0 56 45" fill="none" xmlns="http://www.w3.org/2000/svg">
<g filter="url(#filter0_d_65_632)">
<path d="M16.6333 30.4772C16.7008 30.4548 16.8132 30.4436 16.9707 30.4436C17.3081 30.4436 17.5667 30.5555 17.7467 30.7794C17.9266 31.0033 18.0166 31.3056 18.0166 31.6862C18.0166 32.3802 17.8816 32.9288 17.6117 33.3318C17.3418 33.7124 16.9369 33.9922 16.3971 34.1714C15.3625 34.5072 14.2603 34.6751 13.0907 34.6751C12.101 34.6751 11.1676 34.5408 10.2904 34.2721C9.63809 35.3244 8.91833 36.4103 8.13108 37.5297C7.23138 38.8059 6.45538 39.6791 5.8031 40.1492C5.15081 40.6194 4.40855 40.8545 3.57633 40.8545C2.65413 40.8545 1.92312 40.4963 1.3833 39.7798C0.865966 39.0634 0.539823 37.9327 0.404867 36.3879C0.134956 33.2534 0 30.5108 0 28.1599V26.9845C0.0224927 26.2456 0.224926 25.7307 0.607301 25.4396C0.989676 25.1486 1.56324 25.0031 2.32799 25.0031C2.9128 25.0031 3.34016 25.1374 3.61007 25.4061C3.90247 25.6523 4.04867 26.0777 4.04867 26.6822C4.04867 29.257 4.20612 32.6041 4.52102 36.7237C5.87058 34.7311 6.88274 33.1415 7.55752 31.9548C7.22013 31.3056 7.05144 30.5331 7.05144 29.6376C7.05144 28.8764 7.22013 28.1375 7.55752 27.4211C7.89491 26.7046 8.35601 26.1225 8.94082 25.6747C9.52563 25.2269 10.1892 25.0031 10.9314 25.0031C11.5837 25.0031 12.1123 25.2381 12.5171 25.7083C12.922 26.1561 13.1244 26.8166 13.1244 27.6897C13.1244 28.6972 12.8545 29.8503 12.3147 31.1488C13.1694 31.1041 14.3053 30.9361 15.7223 30.6451L16.6333 30.4772Z" fill="white"/>
<path d="M18.8337 22.8201C17.889 22.8201 17.1805 22.6074 16.7082 22.182C16.2358 21.7343 15.9996 21.1186 15.9996 20.3349C15.9996 19.5513 16.3033 18.902 16.9106 18.3871C17.5404 17.8498 18.3164 17.5811 19.2386 17.5811C20.0708 17.5811 20.7456 17.7826 21.2629 18.1856C21.7802 18.5886 22.0389 19.1595 22.0389 19.8984C22.0389 20.7939 21.7465 21.5104 21.1617 22.0477C20.5769 22.5627 19.8009 22.8201 18.8337 22.8201ZM18.5638 40.8545C17.1018 40.8545 16.0334 40.3395 15.3586 39.3096C14.7063 38.2797 14.3802 36.914 14.3802 35.2124C14.3802 34.2049 14.5039 32.9176 14.7513 31.3503C15.0212 29.7607 15.3586 28.283 15.7635 26.9173C15.9659 26.2009 16.2358 25.7083 16.5732 25.4396C16.9106 25.171 17.4504 25.0366 18.1927 25.0366C19.3398 25.0366 19.9134 25.4173 19.9134 26.1785C19.9134 26.7382 19.6997 28.0368 19.2723 30.0742C18.7325 32.537 18.4626 34.2049 18.4626 35.0781C18.4626 35.7498 18.5525 36.2647 18.7325 36.623C18.9124 36.9812 19.2161 37.1603 19.6434 37.1603C20.0483 37.1603 20.5544 36.8804 21.1617 36.3207C21.769 35.761 22.5787 34.8766 23.5909 33.6676C23.8608 33.3542 24.1645 33.1974 24.5018 33.1974C24.7943 33.1974 25.0192 33.3318 25.1766 33.6004C25.3566 33.8691 25.4465 34.2385 25.4465 34.7087C25.4465 35.6043 25.2329 36.2983 24.8055 36.7909C22.5787 39.5 20.4982 40.8545 18.5638 40.8545Z" fill="white"/>
<path d="M53.7826 34.2049C54.075 34.2049 54.2999 34.3393 54.4574 34.6079C54.6373 34.8766 54.7273 35.246 54.7273 35.7162C54.7273 36.5222 54.5361 37.2163 54.1537 37.7984C53.5239 38.7611 52.6917 39.5111 51.657 40.0485C50.6449 40.5858 49.4303 40.8545 48.0132 40.8545C45.8539 40.8545 44.1782 40.2164 42.9861 38.9402C41.794 37.6417 41.198 35.8953 41.198 33.7012C41.198 32.1563 41.5241 30.7235 42.1764 29.4025C42.8287 28.0592 43.7284 26.9957 44.8755 26.2121C46.0451 25.4284 47.3609 25.0366 48.823 25.0366C50.1275 25.0366 51.1734 25.4284 51.9607 26.2121C52.7479 26.9733 53.1415 28.0144 53.1415 29.3353C53.1415 30.8802 52.5792 32.2123 51.4546 33.3318C50.3525 34.4288 48.4631 35.302 45.7865 35.9513C46.3263 36.9812 47.2372 37.4961 48.5193 37.4961C49.4415 37.4961 50.195 37.2834 50.7798 36.858C51.3871 36.4327 52.0844 35.7162 52.8716 34.7087C53.1415 34.3729 53.4452 34.2049 53.7826 34.2049ZM48.2494 28.3278C47.4172 28.3278 46.7087 28.8092 46.1238 29.7719C45.5615 30.7346 45.2804 31.8989 45.2804 33.2646V33.3318C46.6074 33.0183 47.6533 32.5482 48.4181 31.9213C49.1828 31.2944 49.5652 30.5667 49.5652 29.7383C49.5652 29.3129 49.4415 28.9771 49.1941 28.7308C48.9692 28.4622 48.6543 28.3278 48.2494 28.3278Z" fill="white"/>
<path fill-rule="evenodd" clip-rule="evenodd" d="M19.0129 13.1084L26.951 18.3225L23.5333 31.0187C23.0278 32.8974 23.1673 34.8903 23.9299 36.6809C24.6925 38.4715 26.0343 39.9571 27.7422 40.9018C29.4501 41.8464 31.4261 42.1959 33.3564 41.8947C35.2867 41.5936 37.0605 40.659 38.3961 39.2395C39.7317 37.82 40.5525 35.9969 40.728 34.0599C40.9036 32.1229 40.4239 30.1831 39.3651 28.5486C38.3063 26.914 36.7292 25.6785 34.8842 25.0383C33.0393 24.3981 31.0323 24.3899 29.1821 25.015L32.87 11.3151C33.1874 10.1361 33.1241 8.8876 32.6891 7.74641C32.254 6.60522 31.4694 5.62919 30.4461 4.95655L23.636 0.480853C23.2497 0.227108 22.8084 0.0683497 22.3484 0.0176581C21.8884 -0.0330335 21.4228 0.0257918 20.9901 0.189288C20.5574 0.352784 20.1699 0.616272 19.8596 0.958046C19.5493 1.29982 19.3249 1.7101 19.2051 2.15508L17.398 8.86835C17.186 9.65439 17.2279 10.4869 17.5178 11.2479C17.8076 12.0089 18.3307 12.6598 19.0129 13.1084ZM28.3009 8.19175L22.6183 4.45632L21.16 9.87374L28.0126 14.3788L29.1075 10.3116C29.2139 9.91819 29.1931 9.50144 29.0481 9.1205C28.903 8.73955 28.6411 8.41376 28.2995 8.18938L28.3009 8.19175ZM27.2958 32.0223C26.9616 33.2639 27.1366 34.5868 27.7823 35.7C28.4279 36.8132 29.4914 37.6255 30.7388 37.9582C31.9861 38.2909 33.3152 38.1167 34.4335 37.474C35.5519 36.8313 36.3679 35.7727 36.7021 34.5311C37.0364 33.2895 36.8614 31.9666 36.2157 30.8534C35.57 29.7402 34.5066 28.9279 33.2592 28.5952C32.0118 28.2625 30.6828 28.4367 29.5645 29.0794C28.4461 29.7221 27.6301 30.7807 27.2958 32.0223Z" fill="#FAC800"/>
</g>
<defs>
<filter id="filter0_d_65_632" x="0" y="0" width="55.6023" height="44.625" filterUnits="userSpaceOnUse" color-interpolation-filters="sRGB">
<feFlood flood-opacity="0" result="BackgroundImageFix"/>
<feColorMatrix in="SourceAlpha" type="matrix" values="0 0 0 0 0 0 0 0 0 0 0 0 0 0 0 0 0 0 127 0" result="hardAlpha"/>
<feOffset dx="0.875" dy="2.625"/>
<feComposite in2="hardAlpha" operator="out"/>
<feColorMatrix type="matrix" values="0 0 0 0 0.0766667 0 0 0 0 0.165987 0 0 0 0 0.383333 0 0 0 1 0"/>
<feBlend mode="normal" in2="BackgroundImageFix" result="effect1_dropShadow_65_632"/>
<feBlend mode="normal" in="SourceGraphic" in2="effect1_dropShadow_65_632" result="shape"/>
</filter>
</defs>
</svg>
