<svg xmlns="http://www.w3.org/2000/svg" width="96" height="96" fill="none" viewBox="0 0 96 96"><rect width="96" height="96" fill="#8D50F9" rx="16.875"/><g filter="url(#filter0_d_159_601)"><path fill="#fff" d="M34.6846 58.0758C34.7686 58.0479 34.9084 58.0339 35.1042 58.0339C35.5238 58.0339 35.8454 58.1737 36.0692 58.4534C36.293 58.7332 36.4049 59.1108 36.4049 59.5863C36.4049 60.4534 36.237 61.1387 35.9014 61.6422C35.5657 62.1177 35.0623 62.4673 34.3909 62.6911C33.1043 63.1106 31.7337 63.3204 30.2792 63.3204C29.0485 63.3204 27.8877 63.1526 26.7968 62.8169C25.9856 64.1316 25.0906 65.4882 24.1116 66.8867C22.9927 68.4811 22.0277 69.572 21.2166 70.1594C20.4054 70.7468 19.4823 71.0405 18.4474 71.0405C17.3006 71.0405 16.3915 70.5929 15.7202 69.6978C15.0769 68.8028 14.6713 67.3902 14.5035 65.4602C14.1678 61.5443 14 58.1178 14 55.1808V53.7123C14.028 52.7893 14.2797 52.146 14.7552 51.7823C15.2307 51.4187 15.944 51.2369 16.895 51.2369C17.6223 51.2369 18.1537 51.4047 18.4894 51.7404C18.853 52.0481 19.0348 52.5795 19.0348 53.3347C19.0348 56.5514 19.2306 60.7331 19.6222 65.8798C21.3005 63.3904 22.5592 61.4044 23.3983 59.9219C22.9787 59.1108 22.7689 58.1458 22.7689 57.0269C22.7689 56.0759 22.9787 55.1529 23.3983 54.2578C23.8179 53.3627 24.3913 52.6355 25.1185 52.076C25.8458 51.5166 26.6709 51.2369 27.594 51.2369C28.4051 51.2369 29.0625 51.5306 29.5659 52.118C30.0694 52.6774 30.3211 53.5026 30.3211 54.5934C30.3211 55.8521 29.9855 57.2926 29.3142 58.915C30.3771 58.859 31.7896 58.6492 33.5518 58.2856L34.6846 58.0758Z"/><path fill="#fff" d="M37.421 48.5097C36.2462 48.5097 35.3651 48.244 34.7777 47.7125C34.1903 47.1531 33.8966 46.3839 33.8966 45.4049C33.8966 44.4259 34.2743 43.6148 35.0295 42.9714C35.8127 42.3001 36.7777 41.9645 37.9245 41.9645C38.9594 41.9645 39.7986 42.2162 40.4419 42.7197C41.0852 43.2232 41.4069 43.9364 41.4069 44.8595C41.4069 45.9783 41.0433 46.8734 40.316 47.5447C39.5888 48.188 38.6238 48.5097 37.421 48.5097ZM37.0854 71.0405C35.2672 71.0405 33.9386 70.3971 33.0995 69.1104C32.2883 67.8238 31.8827 66.1175 31.8827 63.9917C31.8827 62.733 32.0366 61.1247 32.3442 59.1667C32.6799 57.1808 33.0995 55.3347 33.6029 53.6284C33.8547 52.7333 34.1903 52.118 34.6099 51.7823C35.0295 51.4467 35.7008 51.2789 36.6238 51.2789C38.0504 51.2789 38.7636 51.7544 38.7636 52.7054C38.7636 53.4047 38.4979 55.027 37.9664 57.5724C37.2951 60.6492 36.9595 62.733 36.9595 63.8239C36.9595 64.663 37.0714 65.3064 37.2951 65.7539C37.5189 66.2014 37.8965 66.4252 38.428 66.4252C38.9314 66.4252 39.5608 66.0756 40.316 65.3763C41.0712 64.677 42.0782 63.5722 43.3369 62.0617C43.6726 61.6701 44.0502 61.4743 44.4697 61.4743C44.8334 61.4743 45.1131 61.6422 45.3089 61.9778C45.5326 62.3135 45.6445 62.775 45.6445 63.3624C45.6445 64.4812 45.3788 65.3483 44.8473 65.9637C42.0782 69.3482 39.4909 71.0405 37.0854 71.0405Z"/><path fill="#fff" d="M80.8823 62.733C81.246 62.733 81.5257 62.9009 81.7215 63.2365C81.9452 63.5722 82.0571 64.0337 82.0571 64.6211C82.0571 65.628 81.8194 66.4951 81.3439 67.2224C80.5607 68.4252 79.5257 69.3622 78.2391 70.0335C76.9804 70.7048 75.4699 71.0405 73.7077 71.0405C71.0225 71.0405 68.9387 70.2433 67.4562 68.6489C65.9737 67.0266 65.2325 64.8448 65.2325 62.1037C65.2325 60.1737 65.6381 58.3835 66.4492 56.7332C67.2604 55.055 68.3792 53.7263 69.8058 52.7473C71.2603 51.7683 72.8966 51.2789 74.7147 51.2789C76.337 51.2789 77.6377 51.7683 78.6167 52.7473C79.5957 53.6984 80.0852 54.999 80.0852 56.6493C80.0852 58.5793 79.3859 60.2436 77.9873 61.6422C76.6167 63.0127 74.2672 64.1036 70.9386 64.9148C71.6099 66.2014 72.7427 66.8448 74.3371 66.8448C75.4839 66.8448 76.4209 66.5791 77.1482 66.0476C77.9034 65.5162 78.7705 64.6211 79.7495 63.3624C80.0852 62.9428 80.4628 62.733 80.8823 62.733ZM74.0014 55.3906C72.9665 55.3906 72.0854 55.992 71.3582 57.1947C70.6589 58.3975 70.3092 59.852 70.3092 61.5582V61.6422C71.9595 61.2506 73.2602 60.6632 74.2112 59.88C75.1622 59.0968 75.6377 58.1877 75.6377 57.1528C75.6377 56.6213 75.4839 56.2018 75.1762 55.8941C74.8965 55.5584 74.5049 55.3906 74.0014 55.3906Z"/><path fill="#FAC800" fill-rule="evenodd" d="M37.6438 36.3767L47.5154 42.8908L43.2653 58.7524C42.6366 61.0994 42.8102 63.5892 43.7585 65.8263C44.7068 68.0633 46.3754 69.9194 48.4993 71.0995C50.6232 72.2797 53.0805 72.7163 55.481 72.3401C57.8814 71.9638 60.0873 70.7962 61.7482 69.0228C63.4091 67.2493 64.4298 64.9718 64.6481 62.5518C64.8664 60.1319 64.2699 57.7084 62.9532 55.6664C61.6365 53.6243 59.6753 52.0807 57.3809 51.2809C55.0866 50.4811 52.5908 50.4709 50.29 51.2518L54.8761 34.1362C55.2708 32.6633 55.1921 31.1035 54.6511 29.6778C54.1101 28.2521 53.1343 27.0327 51.8619 26.1923L43.393 20.6007C42.9126 20.2837 42.3638 20.0854 41.7917 20.0221C41.2197 19.9587 40.6408 20.0322 40.1027 20.2365C39.5646 20.4407 39.0827 20.7699 38.6968 21.1969C38.3108 21.6239 38.0319 22.1365 37.8829 22.6924L35.6356 31.0794C35.372 32.0615 35.4241 33.1015 35.7846 34.0523C36.145 35.003 36.7955 35.8162 37.6438 36.3767ZM49.1941 30.2341L42.1274 25.5674L40.3139 32.3355L48.8356 37.9638L50.1971 32.8825C50.3295 32.391 50.3036 31.8704 50.1233 31.3944C49.9429 30.9185 49.6172 30.5115 49.1924 30.2312L49.1941 30.2341ZM47.9442 60.0062C47.5286 61.5573 47.7462 63.2101 48.5491 64.6008C49.3521 65.9916 50.6746 67.0064 52.2258 67.422C53.777 67.8377 55.4297 67.6201 56.8204 66.8171C58.2112 66.0142 59.226 64.6917 59.6416 63.1405C60.0573 61.5893 59.8397 59.9366 59.0367 58.5458C58.2338 57.1551 56.9113 56.1403 55.3601 55.7246C53.8089 55.309 52.1562 55.5266 50.7654 56.3295C49.3747 57.1325 48.3599 58.455 47.9442 60.0062Z" clip-rule="evenodd"/></g><defs><filter id="filter0_d_159_601" width="69.057" height="55.472" x="14" y="20" color-interpolation-filters="sRGB" filterUnits="userSpaceOnUse"><feFlood flood-opacity="0" result="BackgroundImageFix"/><feColorMatrix in="SourceAlpha" result="hardAlpha" type="matrix" values="0 0 0 0 0 0 0 0 0 0 0 0 0 0 0 0 0 0 127 0"/><feOffset dx="1" dy="3"/><feComposite in2="hardAlpha" operator="out"/><feColorMatrix type="matrix" values="0 0 0 0 0.0766667 0 0 0 0 0.165987 0 0 0 0 0.383333 0 0 0 1 0"/><feBlend in2="BackgroundImageFix" mode="normal" result="effect1_dropShadow_159_601"/><feBlend in="SourceGraphic" in2="effect1_dropShadow_159_601" mode="normal" result="shape"/></filter></defs></svg>